<svg xmlns="http://www.w3.org/2000/svg" xml:space="preserve" overflow="visible"  width="260" height="124.9" viewBox="0 0 259.99999 124.89575">
<title>Associação Brasileira das Entidades dos Mercados Financeiro e de Capitais</title>
<g transform="matrix(1.524902,0,0,-1.524902,-103.96998,1144.8888)">
<g transform="translate(298.01871,735.0666)">
<path fill="#f9a70d" d="m-123.13-29.238h-2.709s-7.007-0.785-11.216,5.288c-1.981,3.085-22.091,33.032-22.091,33.032l-14.027-38.32h-9.182l15.831,44.966h13.822l29.572-44.966z"/>
<path fill="#73c82c" d="m-168.91-29.238h2.71s7.009-0.785,11.225,5.288c1.986,3.085,22.086,33.032,22.086,33.032l14.03-38.32h9.183l-15.838,44.966h-13.814l-29.582-44.966z"/>
<path fill="#0994dc" d="m-146.01-10.548-5.341,7.986,5.341,8.122,5.343-8.122-5.343-7.986z"/>
</g>
<g transform="translate(497.9221,727.0889)">
<path fill="#444" d="m-276.18-47.453,3.934,11.732,3.896-11.732h-7.83zm3.992,17.139c-0.73,0-1.305-0.018-1.755-0.043-0.436-0.013-0.785-0.063-1.042-0.15-0.243-0.072-0.425-0.181-0.533-0.343-0.112-0.14-0.211-0.333-0.3-0.577l-8.521-24.503c-0.168-0.508-0.272-0.902-0.31-1.199-0.044-0.3,0-0.536,0.142-0.705,0.145-0.16,0.4-0.254,0.772-0.301,0.369-0.041,0.879-0.063,1.539-0.063,0.609,0,1.102,0.013,1.469,0.047,0.38,0.025,0.68,0.072,0.874,0.144,0.213,0.084,0.363,0.193,0.448,0.324,0.1,0.143,0.177,0.312,0.237,0.511l1.746,5.403h10.383l1.851-5.552c0.06-0.188,0.135-0.334,0.216-0.45,0.084-0.118,0.234-0.206,0.451-0.275,0.207-0.067,0.516-0.092,0.917-0.105,0.41-0.034,0.984-0.047,1.703-0.047,0.703,0,1.252,0.022,1.643,0.063,0.401,0.022,0.684,0.115,0.834,0.255,0.161,0.159,0.216,0.389,0.173,0.683-0.038,0.303-0.149,0.711-0.316,1.217l-8.541,24.494c-0.091,0.272-0.193,0.48-0.322,0.636-0.119,0.162-0.312,0.271-0.595,0.343-0.274,0.087-0.663,0.137-1.158,0.15-0.495,0.025-1.167,0.043-2.005,0.043m-21.167-0.13h-3.775c-0.531,0-0.987-0.059-1.391-0.169-0.397-0.099-0.75-0.281-1.042-0.536-0.289-0.26-0.549-0.587-0.77-0.998-0.216-0.418-0.422-0.923-0.596-1.522l-6.285-16.413-5.975,16.46c-0.175,0.596-0.372,1.094-0.599,1.493-0.227,0.406-0.511,0.737-0.855,0.98-0.339,0.255-0.745,0.437-1.212,0.536-0.471,0.11-1.037,0.169-1.688,0.169h-3.674c-0.636,0-1.155-0.194-1.535-0.574-0.382-0.391-0.576-0.942-0.576-1.665v-24.62c0-0.14,0.035-0.268,0.1-0.38,0.094-0.118,0.237-0.212,0.43-0.28,0.22-0.076,0.491-0.125,0.83-0.172,0.343-0.041,0.777-0.063,1.282-0.063,0.533,0,0.957,0.022,1.282,0.063,0.341,0.047,0.62,0.096,0.83,0.172,0.212,0.068,0.359,0.162,0.434,0.28,0.077,0.112,0.132,0.24,0.132,0.38l0.041,22.486,7.725-22.46c0.045-0.162,0.13-0.294,0.255-0.406,0.129-0.118,0.3-0.218,0.514-0.303,0.223-0.071,0.515-0.127,0.851-0.149,0.338-0.041,0.75-0.063,1.242-0.063,0.483,0,0.894,0.013,1.235,0.047,0.343,0.013,0.623,0.05,0.829,0.122,0.235,0.072,0.412,0.165,0.541,0.284,0.123,0.121,0.214,0.277,0.274,0.468l8.052,22.46v-22.486c0-0.14,0.045-0.268,0.125-0.38,0.088-0.118,0.227-0.212,0.428-0.28,0.203-0.076,0.464-0.125,0.811-0.172,0.342-0.041,0.77-0.063,1.278-0.063,0.527,0,0.963,0.022,1.302,0.063,0.344,0.047,0.612,0.096,0.815,0.172,0.209,0.068,0.36,0.162,0.429,0.28,0.091,0.112,0.133,0.24,0.133,0.38v24.62c-0.01,0.355-0.063,0.664-0.157,0.935-0.086,0.287-0.22,0.524-0.405,0.711-0.171,0.193-0.396,0.349-0.679,0.443-0.275,0.099-0.602,0.15-0.986,0.15m-42.024,0.13c-0.545,0-0.988-0.025-1.346-0.068-0.353-0.038-0.654-0.1-0.876-0.162-0.217-0.075-0.37-0.168-0.473-0.281-0.083-0.115-0.123-0.24-0.123-0.387v-26.091c0-0.14,0.041-0.268,0.123-0.38,0.103-0.118,0.256-0.212,0.473-0.28,0.22-0.076,0.495-0.125,0.852-0.172,0.37-0.041,0.825-0.063,1.37-0.063,0.553,0,1.011,0.022,1.363,0.063,0.355,0.047,0.643,0.096,0.855,0.172,0.218,0.068,0.369,0.162,0.449,0.28,0.104,0.112,0.15,0.24,0.15,0.38v26.091c0,0.147-0.046,0.272-0.15,0.387-0.08,0.113-0.231,0.206-0.449,0.281-0.212,0.062-0.499,0.124-0.855,0.162-0.352,0.043-0.81,0.068-1.363,0.068m-24.71-23.465v7.86h3.328c1.029,0,1.866-0.1,2.501-0.281,0.636-0.184,1.166-0.446,1.584-0.786,0.406-0.349,0.717-0.773,0.93-1.284,0.218-0.498,0.321-1.061,0.321-1.706,0-0.616-0.11-1.159-0.34-1.646-0.208-0.466-0.514-0.867-0.911-1.199-0.39-0.309-0.855-0.55-1.396-0.721-0.522-0.155-1.174-0.237-1.96-0.237h-4.057zm0,11.958v7.172h2.841c0.867,0,1.559-0.078,2.068-0.237,0.53-0.149,0.957-0.379,1.304-0.685,0.343-0.281,0.598-0.643,0.769-1.082,0.166-0.441,0.258-0.94,0.258-1.498,0-0.495-0.08-0.975-0.241-1.431-0.154-0.437-0.393-0.835-0.721-1.173-0.314-0.331-0.712-0.589-1.197-0.788-0.487-0.185-1.129-0.278-1.946-0.278h-3.135zm3.096,11.377h-6.944c-0.468,0-0.864-0.144-1.192-0.425-0.309-0.271-0.475-0.717-0.475-1.344v-24.088c0-0.621,0.166-1.083,0.475-1.364,0.328-0.274,0.724-0.405,1.192-0.405h7.35c1.101,0,2.114,0.063,3.012,0.19,0.909,0.141,1.766,0.363,2.557,0.646,0.802,0.281,1.527,0.65,2.181,1.085,0.664,0.443,1.24,0.967,1.705,1.578,0.487,0.615,0.861,1.316,1.13,2.112s0.411,1.687,0.411,2.672c0,0.942-0.147,1.784-0.433,2.545-0.278,0.752-0.671,1.403-1.17,1.965-0.484,0.561-1.062,1.027-1.734,1.389-0.655,0.345-1.373,0.601-2.155,0.741,0.613,0.228,1.153,0.528,1.622,0.902,0.487,0.362,0.895,0.792,1.22,1.278,0.33,0.481,0.58,1.017,0.748,1.597,0.172,0.602,0.257,1.229,0.257,1.902,0,1.194-0.212,2.234-0.644,3.119-0.428,0.877-1.047,1.606-1.856,2.18-0.794,0.583-1.782,1.014-2.964,1.3-1.166,0.281-2.601,0.425-4.293,0.425m-20.404,0.087c-0.519,0-0.934-0.025-1.262-0.063-0.32-0.031-0.592-0.087-0.788-0.174-0.206-0.088-0.346-0.184-0.425-0.3-0.086-0.112-0.131-0.242-0.131-0.374v-12.967c0-0.986,0.007-2.015,0.025-3.1,0.02-1.079,0.066-2.12,0.082-3.109-0.259,0.564-0.518,1.132-0.787,1.699l-0.836,1.733c-0.28,0.599-0.585,1.192-0.904,1.776l-0.905,1.818-5.389,10.092c-0.27,0.552-0.53,1.016-0.784,1.384-0.252,0.387-0.543,0.687-0.834,0.905-0.288,0.212-0.614,0.355-0.988,0.443-0.368,0.099-0.818,0.15-1.359,0.15h-3.014c-0.573,0-1.058-0.169-1.454-0.506-0.38-0.33-0.579-0.829-0.579-1.503v-24.824c0-0.148,0.037-0.272,0.107-0.388,0.074-0.118,0.205-0.215,0.389-0.298,0.19-0.076,0.445-0.125,0.767-0.172,0.334-0.041,0.741-0.063,1.237-0.063,0.517,0,0.932,0.022,1.26,0.063,0.331,0.047,0.585,0.096,0.774,0.172,0.195,0.083,0.33,0.18,0.405,0.298,0.082,0.116,0.122,0.24,0.122,0.388v14.451c0,1.08-0.011,2.13-0.04,3.144-0.028,1.02-0.069,2.04-0.082,3.069,0.324-0.839,0.692-1.707,1.107-2.607,0.413-0.883,0.817-1.71,1.22-2.474l6.868-12.917c0.364-0.71,0.682-1.298,0.966-1.753,0.281-0.443,0.577-0.795,0.871-1.065,0.318-0.26,0.652-0.435,1.008-0.534,0.371-0.094,0.803-0.15,1.303-0.15h2.392c0.27,0,0.53,0.034,0.789,0.106,0.273,0.084,0.502,0.217,0.685,0.383,0.194,0.171,0.35,0.39,0.468,0.646,0.116,0.252,0.169,0.54,0.169,0.874v24.836c0,0.132-0.034,0.262-0.101,0.374-0.073,0.116-0.206,0.212-0.386,0.3-0.18,0.087-0.42,0.143-0.745,0.174-0.332,0.038-0.736,0.063-1.221,0.063m-43.848-17.096,3.926,11.732,3.908-11.732h-7.834zm3.992,17.139c-0.725,0-1.313-0.018-1.751-0.043-0.445-0.013-0.794-0.063-1.046-0.15-0.241-0.072-0.419-0.181-0.541-0.343-0.109-0.14-0.202-0.333-0.292-0.577l-8.52-24.503c-0.173-0.508-0.278-0.902-0.323-1.199-0.04-0.3,0.007-0.536,0.15-0.705,0.144-0.16,0.403-0.254,0.771-0.301,0.364-0.041,0.88-0.063,1.537-0.063,0.609,0,1.102,0.013,1.469,0.047,0.391,0.025,0.68,0.072,0.88,0.144,0.211,0.084,0.361,0.193,0.449,0.324,0.098,0.143,0.18,0.312,0.24,0.511l1.746,5.403h10.377l1.859-5.552c0.048-0.188,0.123-0.334,0.211-0.45,0.087-0.118,0.237-0.206,0.45-0.275,0.205-0.067,0.517-0.092,0.912-0.105,0.416-0.034,0.982-0.047,1.711-0.047,0.696,0,1.248,0.022,1.645,0.063,0.395,0.022,0.673,0.115,0.832,0.255,0.153,0.159,0.216,0.389,0.169,0.683-0.041,0.303-0.152,0.711-0.325,1.217l-8.534,24.494c-0.088,0.272-0.195,0.48-0.316,0.636-0.119,0.162-0.315,0.271-0.605,0.343-0.268,0.087-0.652,0.137-1.151,0.15-0.489,0.025-1.169,0.043-2.004,0.043"/>
</g>
</g>
</svg>
