<?xml version="1.0" encoding="UTF-8"?>
<svg id="Camada_1" data-name="Camada 1" xmlns="http://www.w3.org/2000/svg" viewBox="0 0 703.19 702.79">
  <defs>
    <style>
      .cls-1 {
        fill: #debb74;
      }
    </style>
  </defs>
  <path class="cls-1" d="M416.62,200.82l-28.92-89.5c46.05,6.79,87.91,26.58,121.72,55.5l42.56-15.6c-43.75-43.87-101.93-73.44-166.8-81.06-6.88-.81-12.61-5.68-14.74-12.28L351.73,0v351.4l85.82-85.82-20.93-64.76Z"/>
  <path class="cls-1" d="M351.73,351.4l85.82,85.82,64.82-20.93,3.43-1.08,86.01-27.85c-.95,6.53-2.16,12.94-3.68,19.28-8.88,38.44-26.96,73.32-51.76,102.37l15.6,42.56c39.9-39.83,67.93-91.53,78.4-149.31,1.01-5.7,1.88-11.5,2.57-17.35.82-6.91,5.67-12.67,12.28-14.8l57.96-18.72h-351.46Z"/>
  <path class="cls-1" d="M201.09,286.51l-33.94-92.54-.06-.19c-26.75,31.33-45.7,69.53-53.74,111.61-1.21,6.33-5.93,11.42-12.06,13.4l-31.88,10.29L.34,351.4h351.4l-85.82-85.82-64.82,20.93Z"/>
  <path class="cls-1" d="M286.84,501.98l-92.67,33.93-.13.06c31.33,26.8,69.58,45.77,111.67,53.8,6.33,1.21,11.42,5.93,13.4,12.06l10.29,31.88,22.33,69.07v-351.4l-85.82,85.82,20.93,64.76Z"/>
  <path class="cls-1" d="M437.55,437.22l-20.93,64.76,92.8,34c-33.81,28.92-75.67,48.71-121.72,55.5l-13.64,42.24c69.33-5.39,131.68-35.77,177.92-82.14l-28.61-28.54-85.82-85.82Z"/>
  <path class="cls-1" d="M437.55,265.58l64.82,20.93,34-92.73c28.86,33.81,48.65,75.61,55.44,121.66l42.24,13.64c-5.39-69.26-35.71-131.55-82.08-177.85l-28.61,28.54-85.82,85.82Z"/>
  <path class="cls-1" d="M315.77,111.32l13.64-42.24,6.85-21.25-42.43,63.2c-2.38,3.54-5.97,6.06-10.07,7.25-30.28,8.8-58.13,23.35-82.25,42.4-4.82,3.81-11.33,4.72-17.1,2.6l-32.92-12.07,28.67,28.67,85.76,85.69,20.93-64.76,28.92-89.5Z"/>
  <path class="cls-1" d="M111.65,387.36l-42.24-13.64-21.25-6.85,63.2,42.43c3.54,2.38,6.06,5.97,7.25,10.07,8.8,30.28,23.35,58.08,42.35,82.19,3.8,4.82,4.71,11.32,2.59,17.09l-12.08,32.94,28.61-28.54v-.06l.06-.06,85.76-85.69-64.82-20.93-89.44-28.92Z"/>
</svg>